<svg xmlns="http://www.w3.org/2000/svg" width="1920" height="1080" viewBox="0 0 1920 1080" role="img" aria-labelledby="title desc">
  <title id="title">Exercise 101: Your first container</title>
  <desc id="desc">Exercise 101 slide for creating a first Docker container image with Visual Studio Code and Docker.</desc>
  <defs>
    <linearGradient id="bg" x1="0%" y1="0%" x2="100%" y2="100%">
      <stop offset="0%" stop-color="#081b33"/>
      <stop offset="55%" stop-color="#0f3d78"/>
      <stop offset="100%" stop-color="#1f6feb"/>
    </linearGradient>
    <linearGradient id="accent" x1="0%" y1="0%" x2="100%" y2="0%">
      <stop offset="0%" stop-color="#5eead4"/>
      <stop offset="100%" stop-color="#93c5fd"/>
    </linearGradient>
    <linearGradient id="panelStroke" x1="0%" y1="0%" x2="100%" y2="100%">
      <stop offset="0%" stop-color="#93c5fd" stop-opacity="0.5"/>
      <stop offset="100%" stop-color="#5eead4" stop-opacity="0.2"/>
    </linearGradient>
    <filter id="shadow" x="-10%" y="-10%" width="120%" height="120%">
      <feDropShadow dx="0" dy="18" stdDeviation="24" flood-color="#021124" flood-opacity="0.35"/>
    </filter>
  </defs>

  <rect width="1920" height="1080" fill="url(#bg)"/>
  <circle cx="1580" cy="160" r="250" fill="#60a5fa" fill-opacity="0.14"/>
  <circle cx="1710" cy="910" r="330" fill="#38bdf8" fill-opacity="0.10"/>
  <circle cx="320" cy="920" r="220" fill="#5eead4" fill-opacity="0.08"/>
  <rect x="140" y="120" width="160" height="10" rx="5" fill="url(#accent)"/>

  <text x="140" y="250" fill="#e0f2fe" font-family="Segoe UI, Arial, sans-serif" font-size="76" font-weight="700" letter-spacing="1">
    Exercise 101: Your first container
  </text>

  <text x="140" y="390" fill="#99f6e4" font-family="Segoe UI, Arial, sans-serif" font-size="28" font-weight="600" letter-spacing="5">
    HANDS-ON EXERCISE
  </text>

  <g filter="url(#shadow)">
    <rect x="140" y="455" width="980" height="305" rx="34" fill="#0b1f3f" fill-opacity="0.56" stroke="url(#panelStroke)" stroke-width="2"/>
  </g>

  <g transform="translate(190 520)" font-family="Segoe UI, Arial, sans-serif">
    <circle cx="0" cy="18" r="12" fill="#5eead4"/>
    <text x="40" y="30" fill="#ffffff" font-size="44" font-weight="600">
      Use Visual Studio Code and Docker to create your
    </text>
    <text x="40" y="95" fill="#ffffff" font-size="44" font-weight="600">
      first Docker container image and run it locally
    </text>
    <text x="40" y="160" fill="#ffffff" font-size="44" font-weight="600">
      to see the result
    </text>
  </g>

  <g transform="translate(1320 310)">
    <g filter="url(#shadow)">
      <rect x="0" y="0" width="420" height="420" rx="34" fill="#0b1f3f" fill-opacity="0.6" stroke="url(#panelStroke)" stroke-width="2"/>
    </g>
    <rect x="70" y="70" width="280" height="190" rx="18" fill="#0f3d78" stroke="#93c5fd" stroke-width="3"/>
    <rect x="100" y="100" width="220" height="130" rx="10" fill="#0b1f3f"/>
    <path d="M 160 165 L 205 130 L 205 150 L 260 150 L 260 180 L 205 180 L 205 200 Z" fill="#5eead4"/>
    <rect x="95" y="290" width="230" height="70" rx="18" fill="#1d4ed8" stroke="#93c5fd" stroke-width="3"/>
    <text x="210" y="336" text-anchor="middle" fill="#ffffff" font-family="Consolas, 'Courier New', monospace" font-size="32" font-weight="700">
      docker run
    </text>
  </g>

  <rect x="140" y="885" width="620" height="4" rx="2" fill="#dbeafe" fill-opacity="0.5"/>
</svg>
